<svg  viewBox="0 0 248 37" fill="none" xmlns="http://www.w3.org/2000/svg">
<path d="M47.9154 36.814H39.3342V14.6265L23.9577 36.2398L8.58123 14.6265V36.814H0V0.36377H9.03566L23.9577 21.4341L38.9538 0.36377H47.9154V36.814Z" fill="#0B0B0B"/>
<path d="M60.0792 0.353027H51.498V36.8138H60.0792V0.353027Z" fill="#0B0B0B"/>
<path d="M103.091 36.8138H94.4994L72.2642 12.2874V36.8138H63.683V0.363525H72.2959L94.4571 24.7646L94.4994 0.363525H103.091V36.8138Z" fill="#0B0B0B"/>
<path d="M154.568 36.8138H145.987V14.6262L130.61 36.2395L115.234 14.6262V36.8138H106.653V0.363525H115.688L130.61 21.4339L145.606 0.363525H154.568V36.8138Z" fill="#0B0B0B"/>
<path d="M203.424 36.8138H194.843V25.2554H172.132V16.7771H194.843V11.6192C194.843 9.76062 194.219 8.83135 192.972 8.83135H168.528C167.345 8.83135 166.742 9.75018 166.742 11.5983V36.8138H158.161V11.6192C158.161 8.54944 159.123 5.90781 161.067 3.69427C163.001 1.48074 165.495 0.363525 168.56 0.363525H192.951C196.069 0.363525 198.584 1.47029 200.528 3.69427C202.462 5.91825 203.435 8.55988 203.435 11.6192V36.8242L203.424 36.8138Z" fill="#0B0B0B"/>
<path d="M248 36.8138H236.808L226.917 25.1196L217.025 36.8138H205.834L221.326 18.3433L206.256 0.363525H217.448L226.917 11.7236L236.386 0.363525H247.567L232.507 18.3433L248 36.8138Z" fill="#0B0B0B"/>
</svg>
