<svg width="103" height="16" viewBox="0 0 103 16" fill="none" xmlns="http://www.w3.org/2000/svg">
<path d="M20.3524 15.4727H16.8078V6.30784L10.4563 15.2355L4.10482 6.30784V15.4727H0.560226V0.416437H4.29253L10.4563 9.11984L16.6506 0.416437H20.3524V15.4727Z" fill="white"/>
<path d="M25.3768 0.411898H21.8322V15.4725H25.3768V0.411898Z" fill="white"/>
<path d="M43.1434 15.4725H39.5945L30.4099 5.34154V15.4725H26.8653V0.416224H30.423L39.577 10.4954L39.5945 0.416224H43.1434V15.4725Z" fill="white"/>
<path d="M64.4066 15.4725H60.862V6.30762L54.5106 15.2353L48.1591 6.30762V15.4725H44.6145V0.416224H48.3468L54.5106 9.11963L60.7049 0.416224H64.4066V15.4725Z" fill="white"/>
<path d="M84.5873 15.4725H81.0427V10.6981H71.6617V7.19608H81.0427V5.06551C81.0427 4.29782 80.7851 3.91397 80.27 3.91397H70.1732C69.6843 3.91397 69.4354 4.29351 69.4354 5.05689V15.4725H65.8908V5.06551C65.8908 3.79753 66.2881 2.70637 67.0913 1.79203C67.8901 0.877702 68.9203 0.416224 70.1863 0.416224H80.2613C81.5491 0.416224 82.588 0.873389 83.3912 1.79203C84.19 2.71068 84.5916 3.80184 84.5916 5.06551V15.4768L84.5873 15.4725Z" fill="white"/>
<path d="M103 15.4725H98.3772L94.2913 10.6421L90.2054 15.4725H85.5826L91.9821 7.84301L85.7572 0.416224H90.38L94.2913 5.10864L98.2026 0.416224H102.821L96.6005 7.84301L103 15.4725Z" fill="white"/>
</svg>
