<svg width="234" height="51" viewBox="0 0 234 51" fill="none" xmlns="http://www.w3.org/2000/svg">
<path d="M97.5197 33.6379H91.6957V18.5794L81.2599 33.2481L70.824 18.5794V33.6379H65V8.89945H71.1324L81.2599 23.1997L91.4375 8.89945H97.5197V33.6379Z" fill="#333333"/>
<path d="M105.775 8.89209H99.9512V33.6376H105.775V8.89209Z" fill="#333333"/>
<path d="M134.967 33.6376H129.136L114.045 16.9918V33.6376H108.221V8.8992H114.066L129.107 25.46L129.136 8.8992H134.967V33.6376Z" fill="#333333"/>
<path d="M169.904 33.6376H164.08V18.5792L153.644 33.2479L143.208 18.5792V33.6376H137.384V8.8992H143.516L153.644 23.1995L163.822 8.8992H169.904V33.6376Z" fill="#333333"/>
<path d="M203.062 33.6376H197.238V25.7931H181.824V20.0389H197.238V16.5383C197.238 15.2769 196.815 14.6462 195.968 14.6462H179.379C178.575 14.6462 178.166 15.2698 178.166 16.5241V33.6376H172.342V16.5383C172.342 14.4549 172.995 12.6621 174.315 11.1597C175.627 9.65744 177.32 8.8992 179.4 8.8992H195.954C198.07 8.8992 199.777 9.65036 201.097 11.1597C202.409 12.6691 203.069 14.462 203.069 16.5383V33.6447L203.062 33.6376Z" fill="#333333"/>
<path d="M233.315 33.6376H225.72L219.006 25.7009L212.293 33.6376H204.697L215.212 21.1019L204.984 8.8992H212.58L219.006 16.6092L225.433 8.8992H233.021L222.8 21.1019L233.315 33.6376Z" fill="#333333"/>
<path d="M24.5 21.5L3.91309 0H45L24.5 21.5Z" fill="#F31D3D"/>
<path d="M18.587 29.2192L2.49166 10.6111L0 7.73218V13.1039V50.2591L18.587 29.2192Z" fill="#F31D3D"/>
<path d="M30.326 29.4671L41.0869 19.3304V40.5939L30.326 29.4671Z" fill="#F31D3D"/>
</svg>
